<svg width="183" height="155" viewBox="0 0 183 155" fill="none" xmlns="http://www.w3.org/2000/svg">
<path d="M46.5329 0.0286812C46.5634 0.0391357 46.5865 0.0467859 46.6058 0.0531642C46.6646 0.0726552 46.6875 0.0802689 46.7778 0.119733L91.5002 24.3848L136.222 0.119733C136.222 0.119733 136.522 0 136.811 0L136.98 0.0286812C137.011 0.0391797 137.034 0.0468503 137.053 0.0532448C137.112 0.0726763 137.135 0.0803233 137.225 0.119733L182.448 24.6567L182.574 24.744L182.718 24.8774L182.858 25.067L182.941 25.2565C182.96 25.3463 182.989 25.4773 182.989 25.4773L183 25.5845V129.427C182.971 129.704 182.961 129.726 182.909 129.833C182.895 129.862 182.879 129.896 182.858 129.943L182.718 130.132L182.54 130.29L182.448 130.353L137.225 154.89C137.225 154.89 136.771 155.049 136.496 154.985C136.367 154.956 136.312 154.931 136.25 154.903C136.241 154.899 136.232 154.894 136.222 154.89L91.5002 130.625L46.7778 154.89C46.7778 154.89 46.2388 155.055 45.912 154.945C45.9077 154.944 45.8515 154.924 45.7747 154.89L0.551187 130.353L0.425754 130.266L0.280889 130.132L0.141627 129.943C0.0585435 129.753 0.0110847 129.533 0.0110847 129.533L0 129.427V25.5845C0.00473337 25.5384 0.0123316 25.4698 0.0123316 25.4698L0.058917 25.2565L0.154209 25.047L0.280889 24.8774L0.45951 24.7203L0.551187 24.6567L45.7747 0.119733C45.7747 0.119733 46.1364 -0.0374158 46.5329 0.0286812ZM94.5208 128.986L93.7087 129.427L136.724 152.765L179.738 129.427L172.394 125.442L136.724 106.088C122.656 113.72 108.589 121.353 94.5208 128.986ZM32.2634 113.691L3.26204 129.427L46.2763 152.765L89.2905 129.427L60.2891 113.691L46.2763 106.088L32.2634 113.691ZM92.5527 127.656L135.671 104.261V50.7488L92.5527 27.3542V127.656ZM47.329 50.7488V104.261L90.4476 127.656V27.3542C83.5977 31.0706 76.748 34.7871 69.8983 38.5035C62.3753 42.5853 54.8523 46.667 47.329 50.7488ZM137.776 50.7488V104.261L180.895 127.656V27.3542L180.571 27.5297C166.306 35.2694 152.041 43.0091 137.776 50.7488ZM2.10536 127.656L43.7888 105.041L45.2236 104.261V50.7488L9.80294 31.5308L2.10536 27.3542V127.656ZM93.7087 25.5845L136.724 48.923L179.738 25.5845L136.724 2.24605L93.7087 25.5845ZM3.26204 25.5845L46.2763 48.923L80.0143 30.6166L89.2905 25.5845L46.2763 2.24605L3.26204 25.5845Z" fill="#FFAA31"/>
<path d="M46.5329 0.0286812C46.5634 0.0391357 46.5865 0.0467859 46.6058 0.0531642C46.6646 0.0726552 46.6875 0.0802689 46.7778 0.119733L91.5002 24.3848L136.222 0.119733C136.222 0.119733 136.522 0 136.811 0L136.98 0.0286812C137.011 0.0391797 137.034 0.0468503 137.053 0.0532448C137.112 0.0726763 137.135 0.0803233 137.225 0.119733L182.448 24.6567L182.574 24.744L182.718 24.8774L182.858 25.067L182.941 25.2565C182.96 25.3463 182.989 25.4773 182.989 25.4773L183 25.5845V129.427C182.971 129.704 182.961 129.726 182.909 129.833C182.895 129.862 182.879 129.896 182.858 129.943L182.718 130.132L182.54 130.29L182.448 130.353L137.225 154.89C137.225 154.89 136.771 155.049 136.496 154.985C136.367 154.956 136.312 154.931 136.25 154.903C136.241 154.899 136.232 154.894 136.222 154.89L91.5002 130.625L46.7778 154.89C46.7778 154.89 46.2388 155.055 45.912 154.945C45.9077 154.944 45.8515 154.924 45.7747 154.89L0.551187 130.353L0.425754 130.266L0.280889 130.132L0.141627 129.943C0.0585435 129.753 0.0110847 129.533 0.0110847 129.533L0 129.427V25.5845C0.00473337 25.5384 0.0123316 25.4698 0.0123316 25.4698L0.058917 25.2565L0.154209 25.047L0.280889 24.8774L0.45951 24.7203L0.551187 24.6567L45.7747 0.119733C45.7747 0.119733 46.1364 -0.0374158 46.5329 0.0286812ZM94.5208 128.986L93.7087 129.427L136.724 152.765L179.738 129.427L172.394 125.442L136.724 106.088C122.656 113.72 108.589 121.353 94.5208 128.986ZM32.2634 113.691L3.26204 129.427L46.2763 152.765L89.2905 129.427L60.2891 113.691L46.2763 106.088L32.2634 113.691ZM92.5527 127.656L135.671 104.261V50.7488L92.5527 27.3542V127.656ZM47.329 50.7488V104.261L90.4476 127.656V27.3542C83.5977 31.0706 76.748 34.7871 69.8983 38.5035C62.3753 42.5853 54.8523 46.667 47.329 50.7488ZM137.776 50.7488V104.261L180.895 127.656V27.3542L180.571 27.5297C166.306 35.2694 152.041 43.0091 137.776 50.7488ZM2.10536 127.656L43.7888 105.041L45.2236 104.261V50.7488L9.80294 31.5308L2.10536 27.3542V127.656ZM93.7087 25.5845L136.724 48.923L179.738 25.5845L136.724 2.24605L93.7087 25.5845ZM3.26204 25.5845L46.2763 48.923L80.0143 30.6166L89.2905 25.5845L46.2763 2.24605L3.26204 25.5845Z" stroke="black"/>
</svg>
